<svg width="280" height="220" viewBox="0 0 280 220" xmlns="http://www.w3.org/2000/svg">
  <rect width="280" height="220" fill="#ffffff"/>

  <!-- Hexagonal neural mark -->
  <g transform="translate(140, 110)">
    <polygon points="0,-54 47,-27 47,27 0,54 -47,27 -47,-27" fill="#3d3d5c"/>
    <line x1="0" y1="-13" x2="0" y2="-42" stroke="#6060a0" stroke-width="1.8" stroke-linecap="round"/>
    <line x1="11" y1="7" x2="35" y2="21" stroke="#6060a0" stroke-width="1.8" stroke-linecap="round"/>
    <line x1="-11" y1="7" x2="-35" y2="21" stroke="#6060a0" stroke-width="1.8" stroke-linecap="round"/>
    <line x1="0" y1="-13" x2="20" y2="-31" stroke="#4a4a70" stroke-width="1.1" stroke-linecap="round"/>
    <line x1="0" y1="-13" x2="-20" y2="-31" stroke="#4a4a70" stroke-width="1.1" stroke-linecap="round"/>
    <line x1="11" y1="7" x2="-11" y2="7" stroke="#4a4a70" stroke-width="1.1" stroke-linecap="round"/>
    <circle cx="0" cy="-42" r="5.5" fill="#8888b8"/>
    <circle cx="35" cy="21" r="5.5" fill="#8888b8"/>
    <circle cx="-35" cy="21" r="5.5" fill="#8888b8"/>
    <circle cx="20" cy="-31" r="3.5" fill="#7070a0"/>
    <circle cx="-20" cy="-31" r="3.5" fill="#7070a0"/>
    <circle cx="0" cy="0" r="13" fill="#ffffff" fill-opacity="0.18"/>
    <circle cx="0" cy="0" r="7" fill="#ffffff" fill-opacity="0.5"/>
  </g>

  <!-- Wordmark -->
  <text x="140" y="186" text-anchor="middle" font-family="Georgia, 'Times New Roman', serif" font-size="26" font-weight="bold" fill="#2a2a3c">Grey<tspan fill="#5a5a8a">Neurons</tspan></text>
  <text x="140" y="208" text-anchor="middle" font-family="Arial, 'Helvetica Neue', sans-serif" font-size="8.5" fill="#8888aa" letter-spacing="0.22em">EXPERIENCE THE WISDOM</text>
</svg>
