<svg width="600" height="88" viewBox="0 0 600 88" xmlns="http://www.w3.org/2000/svg">

  <!-- Hexagonal neural mark -->
  <g transform="translate(72, 44)">
    <polygon points="0,-42 36,-21 36,21 0,42 -36,21 -36,-21" fill="#5a5a80"/>
    <line x1="0" y1="-10" x2="0" y2="-32" stroke="#8888c0" stroke-width="1.4" stroke-linecap="round"/>
    <line x1="9" y1="5" x2="27" y2="16" stroke="#8888c0" stroke-width="1.4" stroke-linecap="round"/>
    <line x1="-9" y1="5" x2="-27" y2="16" stroke="#8888c0" stroke-width="1.4" stroke-linecap="round"/>
    <line x1="0" y1="-10" x2="16" y2="-24" stroke="#6868a0" stroke-width="0.9" stroke-linecap="round"/>
    <line x1="0" y1="-10" x2="-16" y2="-24" stroke="#6868a0" stroke-width="0.9" stroke-linecap="round"/>
    <line x1="9" y1="5" x2="-9" y2="5" stroke="#6868a0" stroke-width="0.9" stroke-linecap="round"/>
    <circle cx="0" cy="-32" r="4" fill="#a0a0d0"/>
    <circle cx="27" cy="16" r="4" fill="#a0a0d0"/>
    <circle cx="-27" cy="16" r="4" fill="#a0a0d0"/>
    <circle cx="16" cy="-24" r="2.8" fill="#8888b8"/>
    <circle cx="-16" cy="-24" r="2.8" fill="#8888b8"/>
    <circle cx="0" cy="0" r="10" fill="#ffffff" fill-opacity="0.18"/>
    <circle cx="0" cy="0" r="5.5" fill="#ffffff" fill-opacity="0.5"/>
  </g>

  <!-- Wordmark -->
  <text x="128" y="62" font-family="Georgia, 'Times New Roman', serif" font-size="42" font-weight="bold" fill="#e8e8f2" letter-spacing="0.5">Grey</text>
  <text x="244" y="62" font-family="Georgia, 'Times New Roman', serif" font-size="42" font-weight="bold" fill="#9090cc" letter-spacing="0.5">Neurons</text>

  <!-- Tagline -->
  <text x="128" y="80" font-family="Arial, 'Helvetica Neue', sans-serif" font-size="11" fill="#7878a8" letter-spacing="0.22em">EXPERIENCE THE WISDOM</text>

</svg>
