<svg width="160" height="160" viewBox="0 0 160 160" xmlns="http://www.w3.org/2000/svg">
  <rect width="160" height="160" fill="transparent"/>

  <g transform="translate(80, 80)">
    <polygon points="0,-62 54,-31 54,31 0,62 -54,31 -54,-31" fill="#3d3d5c"/>
    <line x1="0" y1="-14" x2="0" y2="-48" stroke="#6060a0" stroke-width="2.2" stroke-linecap="round"/>
    <line x1="13" y1="8" x2="40" y2="24" stroke="#6060a0" stroke-width="2.2" stroke-linecap="round"/>
    <line x1="-13" y1="8" x2="-40" y2="24" stroke="#6060a0" stroke-width="2.2" stroke-linecap="round"/>
    <line x1="0" y1="-14" x2="23" y2="-36" stroke="#4a4a70" stroke-width="1.3" stroke-linecap="round"/>
    <line x1="0" y1="-14" x2="-23" y2="-36" stroke="#4a4a70" stroke-width="1.3" stroke-linecap="round"/>
    <line x1="13" y1="8" x2="-13" y2="8" stroke="#4a4a70" stroke-width="1.3" stroke-linecap="round"/>
    <circle cx="0" cy="-48" r="6" fill="#8888b8"/>
    <circle cx="40" cy="24" r="6" fill="#8888b8"/>
    <circle cx="-40" cy="24" r="6" fill="#8888b8"/>
    <circle cx="23" cy="-36" r="4" fill="#7070a0"/>
    <circle cx="-23" cy="-36" r="4" fill="#7070a0"/>
    <circle cx="0" cy="0" r="15" fill="#ffffff" fill-opacity="0.18"/>
    <circle cx="0" cy="0" r="8" fill="#ffffff" fill-opacity="0.5"/>
  </g>
</svg>
